#N canvas 10 23 1620 982 12;
#X obj 1042 780 cnv 15 474 161 empty empty empty 20 12 0 14 -184123
-66577 0;
#X obj 878 766 cnv 15 56 45 empty empty empty 20 12 0 14 -231846 -66577
0;
#X obj 276 228 cnv 15 944 181 empty empty empty 20 12 0 14 -158074
-66577 0;
#X obj 883 417 cnv 15 277 300 empty empty empty 20 12 0 14 -142954
-66577 0;
#X obj 299 -6 openpanel;
#X obj 274 -50 bng 15 250 50 0 empty empty empty 17 7 0 10 -262144
-1 -1;
#X msg 299 14 open \$1;
#X obj 294 39 readsf~ 2;
#X msg 401 -2 start;
#X obj 296 -32 symbol ~/Documents;
#X msg 26 -45 \; pd dsp 1;
#X msg 26 12 \; pd dsp 0;
#N canvas 440 23 625 618 \$0-Allpass 0;
#X obj 253 141 *~ 0.7;
#X obj 222 248 +~;
#X obj 101 191 *~;
#X msg 207 141 -0.7;
#X obj 207 116 loadbang;
#X obj 151 60 inlet coef;
#X obj 46 59 inlet~ signal;
#X obj 233 59 inlet delay;
#X obj 187 385 outlet~;
#X obj 534 57 block~ 64;
#X obj 280 114 delwrite~ \$0delayAP 1000;
#X obj 288 173 delread~ \$0delayAP 0.03;
#X connect 0 0 10 0;
#X connect 1 0 8 0;
#X connect 2 0 1 0;
#X connect 4 0 3 0;
#X connect 6 0 2 0;
#X restore 888 523 pd \$0-Allpass;
#N canvas 995 153 620 756 \$0-Comb 0;
#X obj 17 53 inlet~ sig;
#X obj 121 52 inlet coef;
#X obj 216 53 inlet delay;
#X obj 89 541 outlet~;
#X obj 117 426 +~;
#X text 195 190 <-a;
#X obj 160 318 *~;
#X obj 29 318 *~;
#X obj 400 196 hsl 128 15 0 1 0 0 empty empty empty -2 -8 0 10 -262144
-1 -1 0 1;
#X obj 400 217 sig~;
#X obj 420 241 sig~ 1;
#X obj 99 315 -~;
#X floatatom 317 275 5 0 0 0 - - -;
#X obj 318 139 vsl 15 100 0 200 0 0 empty empty empty 0 -9 0 10 -262144
-1 -1 0 1;
#X obj 145 190 *~ 0.7;
#X text 440 216 mix;
#X obj 314 54 inlet mix;
#X obj 418 146 block~ 64;
#X obj 69 186 lop~ 200;
#X obj 51 120 delwrite~ \$0delayIIR 1000;
#X obj 62 157 delread~ \$0delayIIR 30;
#X text 238 191 Delay D;
#X connect 0 0 7 0;
#X connect 1 0 14 1;
#X connect 2 0 13 0;
#X connect 4 0 3 0;
#X connect 6 0 4 1;
#X connect 7 0 4 0;
#X connect 8 0 9 0;
#X connect 11 0 7 1;
#X connect 13 0 12 0;
#X connect 16 0 8 0;
#X restore 300 322 pd \$0-Comb;
#X floatatom 374 281 5 0 0 0 - - -;
#X obj 286 261 hsl 128 15 0 1 0 0 empty empty empty -2 -8 0 10 -262144
-1 -1 0 1;
#X text 287 237 Filter coef;
#X text 421 282 delay in ms;
#X text 1099 451 Filter coef;
#X obj 963 454 hsl 128 15 0 1 0 0 empty empty empty -2 -8 0 10 -262144
-1 -1 0 1;
#X text 1024 478 delay in ms;
#X obj 392 326 vsl 15 64 0 1 0 0 empty empty empty 0 -9 0 10 -262144
-1 -1 0 1;
#X text 414 347 mix;
#X text 1045 504 approx 1 sample;
#X msg 1011 504 0.03;
#N canvas 738 196 620 756 \$0-Comb 0;
#X text 122 108 The princess is in another castle. Check leftmost combfilter
abstraction \, create it and copy paste!;
#X restore 537 325 pd \$0-Comb;
#X floatatom 611 284 5 0 0 0 - - -;
#X obj 523 264 hsl 128 15 0 1 0 0 empty empty empty -2 -8 0 10 -262144
-1 -1 0 1;
#X text 524 240 Filter coef;
#X text 655 283 delay in ms;
#X obj 629 329 vsl 15 64 0 1 0 0 empty empty empty 0 -9 0 10 -262144
-1 -1 0 1;
#X text 651 350 mix;
#N canvas 841 203 620 802 \$0-Comb 0;
#X text 116 107 The princess is in another castle. Check leftmost combfilter
abstraction \, create it and copy paste!;
#X restore 785 327 pd \$0-Comb;
#X floatatom 859 286 5 0 0 0 - - -;
#X obj 771 266 hsl 128 15 0 1 0 0 empty empty empty -2 -8 0 10 -262144
-1 -1 0 1;
#X text 772 242 Filter coef;
#X text 906 287 delay in ms;
#X obj 877 331 vsl 15 64 0 1 0 0 empty empty empty 0 -9 0 10 -262144
-1 -1 0 1;
#X text 899 352 mix;
#N canvas 738 196 620 756 \$0-Comb 0;
#X text 98 130 The princess is in another castle. Check leftmost combfilter
abstraction \, create it and copy paste!;
#X restore 1013 325 pd \$0-Comb;
#X floatatom 1087 284 5 0 0 0 - - -;
#X obj 999 264 hsl 128 15 0 1 0 0 empty empty empty -2 -8 0 10 -262144
-1 -1 0 1;
#X text 1000 240 Filter coef;
#X text 1134 285 delay in ms;
#X obj 1105 329 vsl 15 64 0 1 0 0 empty empty empty 0 -9 0 10 -262144
-1 -1 0 1;
#X text 1127 350 mix;
#N canvas 0 22 450 300 sum 0;
#X obj 140 270 outlet~;
#X obj 100 68 inlet~;
#X obj 156 66 inlet~;
#X obj 216 65 inlet~;
#X obj 275 66 inlet~;
#X obj 134 146 +~;
#X obj 165 178 +~;
#X obj 192 213 +~;
#X restore 688 490 pd sum;
#X floatatom 976 635 5 0 0 0 - - -;
#N canvas 430 23 635 645 \$0-Allpass 0;
#X text 306 309 Peakaboo;
#X restore 885 681 pd \$0-Allpass;
#X text 1102 607 Filter coef;
#X obj 963 609 hsl 128 15 0 1 0 0 empty empty empty -2 -8 0 10 -262144
-1 -1 0 1;
#X text 1021 636 delay in ms;
#X text 1042 662 approx 1 sample;
#X msg 1008 662 0.03;
#N canvas 615 23 632 825 pan 0;
#X obj 67 39 inlet~;
#X obj 62 538 outlet~ left;
#X obj 176 540 outlet~ right;
#X obj 101 491 *~;
#X obj 222 493 *~;
#X floatatom 317 155 5 0 0 0 - - -;
#X obj 145 118 hsl 128 15 -60 60 0 0 empty empty empty -2 -8 0 10 -262144
-1 -1 0 1;
#X floatatom 323 226 5 0 0 0 - - -;
#X obj 154 171 * 6.28319;
#X obj 154 145 / 360;
#X text 217 171 2 x Pi;
#X floatatom 154 191 0 0 0 0 - - -;
#X text 217 191 Radian;
#X obj 154 211 s radians;
#X obj 232 213 r radians;
#X msg 148 89 0;
#X obj 129 55 inlet azimuth;
#X text 298 21 Change properties of slider and pd pan abstractions
"tan(90)" if you wish to change speaker positions beyond 90 degrees.
, f 46;
#N canvas 615 23 568 475 Exercise6 0;
#X obj 87 226 expr sqrt(pow($f1 \, 2)+pow($f2 \, 2));
#X floatatom 97 264 5 0 0 0 - - -;
#X msg 137 202 2;
#X msg 306 183 2;
#X floatatom 149 165 5 0 0 0 - - -;
#X obj 148 132 expr $f1/sqrt(pow($f1 \, 2));
#X obj 144 71 expr tan($f1)/tan($f2);
#X floatatom 147 102 5 0 0 0 - - -;
#X text 165 19 Ex6 - review;
#X msg 270 28 2;
#X connect 0 0 1 0;
#X connect 2 0 0 0;
#X connect 3 0 0 1;
#X connect 5 0 4 0;
#X connect 6 0 7 0;
#X connect 7 0 5 0;
#X connect 9 0 6 1;
#X restore 423 465 pd Exercise6;
#X obj 309 124 expr math here (tan);
#X obj 321 194 expr other math here (tan);
#X text 58 235 radians to deal with tangent math;
#X connect 6 0 9 0;
#X connect 8 0 11 0;
#X connect 9 0 8 0;
#X connect 11 0 13 0;
#X connect 15 0 6 0;
#X connect 16 0 6 0;
#X connect 19 0 5 0;
#X connect 20 0 7 0;
#X restore 882 777 pd pan;
#X obj 944 750 hsl 128 15 -90 90 0 0 empty empty empty -2 -8 0 10 -262144
-1 -1 0 1;
#X msg 942 722 0;
#X text 976 723 center;
#X msg 1012 527 0;
#X msg 1006 685 0;
#X text 1088 720 Desired angle;
#N canvas 615 23 799 604 OSC-Pan 0;
#X floatatom 197 478 5 0 0 0 - - -;
#X msg 278 282 3011.81;
#X obj 199 342 spigot;
#X obj 278 341 spigot;
#X msg 200 254 set \$1;
#X obj 202 220 hsl 128 15 0 5000 0 0 empty empty empty -2 -8 0 10 -262144
-1 -1 0 1;
#X obj 407 234 tgl 15 0 empty empty empty 17 7 0 10 -262144 -1 -1 0
1;
#X obj 279 370 line 500;
#X obj 199 370 line 500;
#X msg 195 282 3011.81;
#X text 204 196 freq;
#X obj 135 143 inlet signal;
#X obj 161 545 outlet;
#X obj 257 143 inlet toggle;
#X text 530 305 Hardcode: Change -Btheta0 to Btheta0 (check book),
f 26;
#X msg 348 313 something \, -something \$1;
#X msg 10 313 -something \, something \$1;
#X text 21 48 Simpler \, more efficient implementation is encouraged.
Nonetheless \, I've left the blocks intact at their position \, so
what you have to do is patch them up correctly and add the 3 parametres
in the message boxes;
#X obj 139 422 sel something;
#X obj 258 423 sel -something;
#X text 365 425 Change sel X value and message values (see arrow) to
the same value of X. Do not remove/alter signs (-) in front of X.;
#X connect 0 0 12 0;
#X connect 2 0 8 0;
#X connect 3 0 7 0;
#X connect 4 0 9 0;
#X connect 4 0 1 0;
#X connect 6 0 2 1;
#X connect 6 0 3 1;
#X connect 6 0 9 0;
#X connect 13 0 6 0;
#X restore 1119 864 pd OSC-Pan;
#X obj 1108 808 hsl 128 15 0 5000 0 0 empty empty empty -2 -8 0 10
-262144 -1 -1 0 1;
#X text 1245 803 freq;
#X obj 1190 841 tgl 15 0 empty empty empty 17 7 0 10 -262144 -1 -1
0 1;
#X text 1062 889 Change properties of slider and pd pan abstractions
"tan(60)" if you wish to change speaker positions. 60 is the standard
according to the book \, and is thus implemented.;
#X text 446 -32 Cumhur's system for opening files;
#X text 140 -26 Click the bang object to open an audio file, f 21
;
#X text 15 176 extra effect (e.g. Chorus) not added - feel free to
do so :), f 31;
#X text 733 522 Allpass abstraction->;
#X text 671 490 +;
#X text 12 232 Remember to turn coefs and mixes up;
#X text 1202 864 <-Autopan abstraction;
#X floatatom 979 477 5 0 0 0 - - -;
#X text 960 201 Grape flavoured parallel combfilters;
#X text 116 322 Combfilter abstraction->;
#X text 889 419 Allpass;
#X text 757 776 Pan abstraction->;
#X text 1088 747 Azimuth default is set to -90 to 90 theta;
#X text 1078 784 Autopan;
#X obj 881 892 output~;
#X connect 4 0 6 0;
#X connect 5 0 9 0;
#X connect 6 0 7 0;
#X connect 8 0 7 0;
#X connect 9 0 4 0;
#X connect 13 0 46 0;
#X connect 14 0 13 2;
#X connect 15 0 13 1;
#X connect 19 0 12 1;
#X connect 21 0 13 3;
#X connect 24 0 12 2;
#X connect 46 0 12 0;
#X connect 54 0 80 0;
#X connect 54 1 80 1;
#X connect 55 0 54 1;
#X connect 56 0 55 0;
#X connect 58 0 12 2;
#X connect 61 0 55 0;
#X connect 62 0 61 0;
#X connect 64 0 61 1;
#X connect 73 0 12 2;
